<?xml version="1.0" encoding="utf-8"?>
<!-- Generator: Adobe Illustrator 17.1.0, SVG Export Plug-In . SVG Version: 6.00 Build 0)  -->
<!DOCTYPE svg PUBLIC "-//W3C//DTD SVG 1.1//EN" "http://www.w3.org/Graphics/SVG/1.1/DTD/svg11.dtd">
<svg version="1.1" id="Layer_1" xmlns="http://www.w3.org/2000/svg" xmlns:xlink="http://www.w3.org/1999/xlink" x="0px" y="0px"
	 viewBox="0 0 1200 800" enable-background="new 0 0 1200 800" xml:space="preserve">
<rect x="597.6" y="454.4" transform="matrix(-0.8682 0.4962 -0.4962 -0.8682 1497.4 659.2323)" fill="#59C0C3" width="127.1" height="148.2"/>
<rect x="924.9" y="436.5" transform="matrix(-0.8682 0.4962 -0.4962 -0.8682 2101.2012 468.2498)" fill="#59C0C3" width="127.1" height="153.4"/>
<g>
	<polygon fill="#44969E" points="739,497.4 739.1,507.6 760.8,544.3 818,508.8 819.6,499.9 763.6,527.7 	"/>
	
		<rect x="745.3" y="476.9" transform="matrix(-0.8586 0.5126 -0.5126 -0.8586 1703.8827 527.3471)" fill="#59B8BB" width="67.9" height="43.5"/>
</g>
<g>
	<polygon fill="#44969E" points="705.7,693.8 705.8,703.9 727.5,740.7 784.7,705.2 786.3,696.3 730.3,724.1 	"/>
	
		<rect x="712" y="673.3" transform="matrix(-0.8586 0.5126 -0.5126 -0.8586 1742.684 909.423)" fill="#59B8BB" width="67.9" height="43.5"/>
</g>
<polygon fill="#44969E" points="876.8,410.1 876.9,420.3 898.6,457 955.8,421.6 957.4,412.7 901.4,440.4 "/>
<rect x="883.2" y="389.6" transform="matrix(-0.8586 0.5126 -0.5126 -0.8586 1915.5016 294.472)" fill="#59B8BB" width="67.9" height="43.5"/>
<polygon fill="#44969E" points="506.8,367.1 506.9,377.3 528.6,414 585.8,378.6 587.4,369.7 531.4,397.4 "/>
<g>
	<polygon fill="#44969E" points="578.2,355.1 578,361.4 585.2,378.9 608.6,364.6 608.7,357.5 	"/>
	<polygon fill="#59B8BB" points="578.2,355.1 599.7,342.3 608.7,357.4 586.8,370.1 	"/>
</g>
<rect x="513.2" y="346.6" transform="matrix(-0.8586 0.5126 -0.5126 -0.8586 1205.7698 404.2179)" fill="#59B8BB" width="67.9" height="43.5"/>
<g>
	<polygon fill="#44969E" points="698.8,430.8 698.5,437.1 707.7,452.7 729.1,439.2 729.3,433.2 	"/>
	
		<rect x="701.6" y="423.1" transform="matrix(-0.8586 0.5126 -0.5126 -0.8586 1548.6189 436.7625)" fill="#59B8BB" width="25" height="17.6"/>
</g>
<g>
	<polygon fill="#59A4AB" points="697.8,337.9 697.5,344.2 706.7,359.8 728.1,346.3 728.2,340.3 	"/>
	
		<rect x="700.5" y="330.3" transform="matrix(-0.8586 0.5126 -0.5126 -0.8586 1498.9941 264.7367)" fill="#59B8BB" width="25" height="17.6"/>
</g>
<g>
	<polygon fill="#44969E" points="706.7,352.8 706.4,359.2 715.6,374.7 737,361.2 737.2,355.2 	"/>
	
		<rect x="709.4" y="345.2" transform="matrix(-0.8586 0.5126 -0.5126 -0.8586 1523.1182 287.8958)" fill="#59B8BB" width="25" height="17.6"/>
</g>
<g>
	<polygon fill="#44969E" points="676,393.8 675.7,400.1 684.9,415.7 706.3,402.2 706.4,396.2 	"/>
	
		<rect x="678.7" y="386.2" transform="matrix(-0.8586 0.5126 -0.5126 -0.8586 1487.1278 379.7823)" fill="#59B8BB" width="25" height="17.6"/>
</g>
<g>
	<polygon fill="#44969E" points="676.5,350.7 676.2,357.1 685.4,372.6 706.8,359.1 706.9,353.1 	"/>
	<polygon fill="#59B8BB" points="676.5,350.7 698,337.9 706.9,352.9 685.4,365.8 	"/>
</g>
<g>
	<polygon fill="#44969E" points="736.6,408.9 736.3,415.2 745.5,430.7 766.9,417.2 767,411.2 	"/>
	
		<rect x="739.3" y="401.2" transform="matrix(-0.8586 0.5126 -0.5126 -0.8586 1607.4017 376.6396)" fill="#59B8BB" width="25" height="17.6"/>
</g>
<g>
	<polygon fill="#44969E" points="651.6,264.9 651.3,271.2 660.5,286.7 681.9,273.2 682,267.2 	"/>
	
		<rect x="654.3" y="257.2" transform="matrix(-0.8586 0.5126 -0.5126 -0.8586 1375.6028 152.5703)" fill="#59B8BB" width="25" height="17.6"/>
</g>
<g>
	<polygon fill="#44969E" points="623.3,304.1 623,310.5 632.2,326 653.7,312.5 653.8,306.5 	"/>
	
		<rect x="626" y="296.4" transform="matrix(-0.8586 0.5126 -0.5126 -0.8586 1343.2168 240.0025)" fill="#59B8BB" width="25" height="17.6"/>
</g>
<g>
	<polygon fill="#44969E" points="653.2,306.7 652.9,313 660.8,328.6 683.5,315 683.6,309 	"/>
	
		<rect x="655.9" y="299" transform="matrix(-0.8586 0.5126 -0.5126 -0.8586 1400.0566 229.4509)" fill="#59B8BB" width="25" height="17.6"/>
</g>
<g>
	<polygon fill="#44969E" points="632.3,319.1 632,325.5 641.2,341 662.7,327.5 662.8,321.5 	"/>
	
		<rect x="635" y="311.4" transform="matrix(-0.8586 0.5126 -0.5126 -0.8586 1367.6337 263.2682)" fill="#59B8BB" width="25" height="17.6"/>
</g>
<g>
	<polygon fill="#44969E" points="870.3,503.3 870,509.6 879.2,525.2 900.6,511.6 900.8,505.6 	"/>
	
		<rect x="873" y="495.5" transform="matrix(-0.8586 0.5126 -0.5126 -0.8586 1904.405 483.4582)" fill="#59B8BB" width="25" height="17.6"/>
</g>
<g>
	<polygon fill="#44969E" points="883.1,525.2 882.8,531.6 892,547.1 913.4,533.6 913.5,527.6 	"/>
	
		<rect x="885.8" y="517.6" transform="matrix(-0.8586 0.5126 -0.5126 -0.8586 1939.3632 517.863)" fill="#59B8BB" width="25" height="17.6"/>
</g>
<g>
	<polygon fill="#44969E" points="895.3,546.2 895,552.5 904.2,568 925.7,554.5 925.8,548.5 	"/>
	
		<rect x="898" y="538.5" transform="matrix(-0.8586 0.5126 -0.5126 -0.8586 1972.8862 550.3728)" fill="#59B8BB" width="25" height="17.6"/>
</g>
<g>
	<polygon fill="#44969E" points="724.2,254.4 723.9,260.8 733.1,276.3 754.5,262.8 754.7,256.8 	"/>
	
		<rect x="726.9" y="246.8" transform="matrix(-0.8586 0.5126 -0.5126 -0.8586 1505.2268 96.0508)" fill="#59B8BB" width="25" height="17.6"/>
</g>
<g>
	<polygon fill="#44969E" points="749.8,206.2 749.6,212.5 758.7,228.1 780.2,214.6 780.3,208.6 	"/>
	
		<rect x="752.6" y="198.6" transform="matrix(-0.8586 0.5126 -0.5126 -0.8586 1528.2891 -6.769)" fill="#59B8BB" width="25" height="17.6"/>
</g>
<g>
	<polygon fill="#44969E" points="772,245.3 771.8,251.6 781,267.1 802.4,253.6 802.5,247.6 	"/>
	
		<rect x="774.8" y="237.6" transform="matrix(-0.8586 0.5126 -0.5126 -0.8586 1589.5001 54.3636)" fill="#59B8BB" width="25" height="17.6"/>
</g>
<g>
	<polygon fill="#44969E" points="733,269.4 732.7,275.7 741.9,291.3 763.3,277.7 763.5,271.7 	"/>
	
		<rect x="735.7" y="261.7" transform="matrix(-0.8586 0.5126 -0.5126 -0.8586 1529.3292 119.1134)" fill="#59B8BB" width="25" height="17.6"/>
</g>
<g>
	<polygon fill="#44969E" points="790.4,189.7 790.1,196.1 799.3,211.6 820.8,198.1 820.9,192.1 	"/>
	
		<rect x="793.2" y="182.1" transform="matrix(-0.8586 0.5126 -0.5126 -0.8586 1595.2437 -58.2449)" fill="#59B8BB" width="25" height="17.6"/>
</g>
<g>
	<polygon fill="#44969E" points="817.9,173.6 817.6,179.9 826.8,195.6 848.2,182.1 848.3,176.1 	"/>
	
		<rect x="820.6" y="166" transform="matrix(-0.8586 0.5126 -0.5126 -0.8586 1638.004 -102.1025)" fill="#59B8BB" width="25" height="17.6"/>
</g>
<g>
	<polygon fill="#44969E" points="794.8,373.9 794.5,380.2 803.7,395.8 825.2,382.2 825.3,376.3 	"/>
	
		<rect x="797.5" y="366.2" transform="matrix(-0.8586 0.5126 -0.5126 -0.8586 1697.759 281.6827)" fill="#59B8BB" width="25" height="17.6"/>
</g>
<g>
	<polygon fill="#44969E" points="886.8,323.8 886.2,333.6 905,363.5 940.6,341.3 941.6,332.1 	"/>
	
		<rect x="892.8" y="310.3" transform="matrix(-0.8586 0.5126 -0.5126 -0.8586 1867.219 140.7513)" fill="#59B8BB" width="42.9" height="35.2"/>
</g>
<g>
	<polygon fill="#44969E" points="840.5,352.1 839.9,362 858.7,391.8 894.3,369.6 895.3,360.4 	"/>
	
		<rect x="846.5" y="338.6" transform="matrix(-0.8586 0.5126 -0.5126 -0.8586 1795.7766 217.2117)" fill="#59B8BB" width="42.9" height="35.2"/>
</g>
<g>
	<polygon fill="#44969E" points="788.4,398.1 787.8,407.9 806.6,437.8 842.2,415.6 843.3,406.3 	"/>
	
		<rect x="794.4" y="384.6" transform="matrix(-0.8586 0.5126 -0.5126 -0.8586 1722.4591 329.278)" fill="#59B8BB" width="42.9" height="35.2"/>
</g>
<g>
	<polygon fill="#44969E" points="846.6,253.4 846,263.2 864.8,293 900.4,270.8 901.5,261.6 	"/>
	
		<rect x="852.6" y="239.9" transform="matrix(-0.8586 0.5126 -0.5126 -0.8586 1756.4545 30.4979)" fill="#59B8BB" width="42.9" height="35.2"/>
</g>
<g>
	<polygon fill="#44969E" points="811.4,198.1 809.5,204.8 829.6,236.4 865.2,214.2 866.2,205 	"/>
	
		<rect x="817.2" y="184.3" transform="matrix(-0.8586 0.5126 -0.5126 -0.8586 1662.2828 -54.7297)" fill="#59B8BB" width="42.9" height="35.2"/>
</g>
<g>
	<polygon fill="#44969E" points="552.6,437.1 552,446.9 570.8,476.8 606.4,454.6 607.5,445.4 	"/>
	
		<rect x="558.6" y="423.6" transform="matrix(-0.8586 0.5126 -0.5126 -0.8586 1304.1655 522.6494)" fill="#59B8BB" width="42.9" height="35.2"/>
</g>
<g>
	<polygon fill="#44969E" points="898.3,587.6 897.7,597.4 916.5,627.2 952.1,605 953.1,595.8 	"/>
	
		<rect x="904.3" y="574" transform="matrix(-0.8586 0.5126 -0.5126 -0.8586 2023.8522 625.1017)" fill="#59B8BB" width="42.9" height="35.2"/>
</g>
<g>
	<polygon fill="#44969E" points="912.4,216 912.5,226.2 934.2,262.9 991.4,227.5 993,218.6 937,246.4 	"/>
	
		<rect x="918.8" y="195.5" transform="matrix(-0.8586 0.5126 -0.5126 -0.8586 1882.1549 -84.5125)" fill="#59B8BB" width="67.9" height="43.5"/>
</g>
<g>
	<polygon fill="#44969E" points="462.2,287.2 462.3,297.4 484,334.1 541.2,298.7 542.8,289.8 486.8,317.6 	"/>
	
		<rect x="468.6" y="266.8" transform="matrix(-0.8586 0.5126 -0.5126 -0.8586 1081.939 278.6097)" fill="#59B8BB" width="67.9" height="43.5"/>
</g>
<path fill="#85D0D3" stroke="#59A2AF" stroke-miterlimit="10" d="M1199.6,480.6l-4.9-8.2l-110,65.5l-74.6-125.3l112.8-67.2l-4.9-8.2
	l-112.8,67.2l-71.9-120.8L1050,214l-4.9-8.2l-116.8,69.6l-35.1-58.8l108.8-64.8l-4.9-8.2l-108.8,64.8l-40.5-68L954.2,77l-4.9-8.2
	L843,132.1L761.4-5l-8.3,5l81.6,137l-100.9,60.1l-53.9-90.6l-8.2,4.9l53.9,90.6l-47.8,28.5L506.3-57.4l-8.2,4.9l171.5,287.9
	L596.5,279l-105-176.2l-8.2,4.9l105,176.2l-107.4,64L329.2,93.2l-8.2,4.9l151.7,254.6l-78,46.4L102.9-90.7l-8.2,4.9l337,565.8
	l8.2-4.9l-40.3-67.7l78-46.4l40.5,68l-86.6,51.6c0,0,35.1,61.8,42.8,74.6c7.4,12.3,43.9,85.3,138.1,83.3L440.7,740.6l4.9,8.2
	l194.1-115.6l73.6,123.6l8.2-4.9L648,628.3l107.4-64L830,689.6L629,809.4l4.9,8.2l201-119.8l54.4,91.3l8.2-4.9L843.1,693l129.1-77
	l105,176.2l8.2-4.9l-105-176.2l100.9-60.1l8.8,14.7l8.2-4.9l-8.8-14.7L1199.6,480.6z M996.9,409.3L896,469.4l-71.9-120.8L925,288.5
	L996.9,409.3z M646.8,363.4l73.1-43.6l35.1,58.8l-73.1,43.6L646.8,363.4z M673.6,427.1l-107.4,64l-35.1-58.8l107.4-64L673.6,427.1z
	 M728.1,314.9l47.8-28.5l35.1,58.8l-47.8,28.5L728.1,314.9z M759.9,386.9l71.9,120.8l-73.1,43.6l-71.9-120.8L759.9,386.9z
	 M840,502.7L768.1,382l47.8-28.5l71.9,120.8L840,502.7z M920.1,280.3l-100.9,60.1l-35.1-58.8L885,221.4L920.1,280.3z M839.6,145.2
	l40.5,68l-100.9,60.1l-40.5-68L839.6,145.2z M730.5,210.2l40.5,68l-47.8,28.5l-40.5-68L730.5,210.2z M674.5,243.6l40.5,68
	l-73.1,43.6l-40.5-68L674.5,243.6z M485.8,356l107.4-64l40.5,68l-107.4,64L485.8,356z M445.5,483.3l77.5-46.1l35,58.8l-78.4,46.7
	C459.8,507.6,450.1,491,445.5,483.3z M484.3,551.1l78.6-46.8L634.8,625l-2.7,1.6C595.5,637,522.1,618.5,484.3,551.1z M643.1,620.1
	l-71.9-120.8l107.4-64l71.9,120.8L643.1,620.1z M763.6,559.4l72.7-43.3c18.8,35,40.3,128.3,25.6,154.5l-23.7,14.1L763.6,559.4z
	 M876,662.2c2.4-21.7-0.2-89.3-31.8-150.8l48.5-28.9l74.6,125.3L876,662.2z M975.6,602.9L901,477.6l100.9-60.1l74.6,125.3
	L975.6,602.9z"/>
<rect x="50" y="198" transform="matrix(0.8662 -0.4998 0.4998 0.8662 -30.9557 288.4066)" fill="#85D0D3" stroke="#59A2AF" stroke-miterlimit="10" width="946" height="8"/>
</svg>
