<?xml version="1.0" encoding="utf-8"?>
<!-- Generator: Adobe Illustrator 16.2.1, SVG Export Plug-In . SVG Version: 6.00 Build 0)  -->
<!DOCTYPE svg PUBLIC "-//W3C//DTD SVG 1.1//EN" "http://www.w3.org/Graphics/SVG/1.1/DTD/svg11.dtd">
<svg version="1.1" id="Layer_1" xmlns="http://www.w3.org/2000/svg" xmlns:xlink="http://www.w3.org/1999/xlink" x="0px" y="0px"
	 width="1100px" height="700px" viewBox="0 0 1100 700" enable-background="new 0 0 1100 700" xml:space="preserve">
<g>
	<defs>
		<rect id="SVGID_1_" width="1100" height="700"/>
	</defs>
	<clipPath id="SVGID_2_">
		<use xlink:href="#SVGID_1_"  overflow="visible"/>
	</clipPath>
</g>
<g>
	<defs>
		<rect id="SVGID_3_" width="1100" height="700"/>
	</defs>
	<clipPath id="SVGID_4_">
		<use xlink:href="#SVGID_3_"  overflow="visible"/>
	</clipPath>
	<path clip-path="url(#SVGID_4_)" fill="#E3E1F0" d="M476,149.333c0,0.92-0.746,1.667-1.667,1.667c-0.92,0-1.666-0.747-1.666-1.667
		c0-0.92,0.746-1.667,1.666-1.667C475.254,147.667,476,148.413,476,149.333"/>
	<path clip-path="url(#SVGID_4_)" fill="#E3E1F0" d="M337.333,106.333c0,0.92-0.746,1.667-1.667,1.667
		c-0.92,0-1.666-0.747-1.666-1.667c0-0.92,0.746-1.667,1.666-1.667C336.587,104.667,337.333,105.413,337.333,106.333"/>
	<g opacity="0.59" clip-path="url(#SVGID_4_)">
		<g>
			<defs>
				<rect id="SVGID_5_" x="283.333" y="128.667" width="3.334" height="3.333"/>
			</defs>
			<clipPath id="SVGID_6_">
				<use xlink:href="#SVGID_5_"  overflow="visible"/>
			</clipPath>
			<path clip-path="url(#SVGID_6_)" fill="#E3E1F0" d="M286.667,130.333c0,0.92-0.746,1.667-1.667,1.667
				c-0.92,0-1.666-0.747-1.666-1.667c0-0.92,0.746-1.667,1.666-1.667C285.921,128.667,286.667,129.413,286.667,130.333"/>
		</g>
	</g>
	<path clip-path="url(#SVGID_4_)" fill="#E3E1F0" d="M252.479,29.833c0,1.093-0.886,1.979-1.979,1.979
		c-1.093,0-1.979-0.886-1.979-1.979c0-1.093,0.886-1.979,1.979-1.979C251.593,27.854,252.479,28.74,252.479,29.833"/>
	<path clip-path="url(#SVGID_4_)" fill="#E3E1F0" d="M122.979,182.979c0,1.093-0.886,1.979-1.979,1.979
		c-1.093,0-1.979-0.886-1.979-1.979c0-1.093,0.886-1.979,1.979-1.979C122.093,181,122.979,181.886,122.979,182.979"/>
	<path clip-path="url(#SVGID_4_)" fill="#E3E1F0" d="M609.546,180.599c0,1.093-0.886,1.979-1.979,1.979
		c-1.094,0-1.979-0.886-1.979-1.979c0-1.093,0.886-1.979,1.979-1.979C608.66,178.62,609.546,179.506,609.546,180.599"/>
	<path clip-path="url(#SVGID_4_)" fill="#E3E1F0" d="M790.558,320.092c0,1.093-0.886,1.979-1.979,1.979
		c-1.094,0-1.979-0.886-1.979-1.979c0-1.093,0.886-1.979,1.979-1.979C789.672,318.113,790.558,318.999,790.558,320.092"/>
	<path clip-path="url(#SVGID_4_)" fill="#E3E1F0" d="M871.554,278.094c0,1.093-0.886,1.979-1.979,1.979
		c-1.093,0-1.979-0.886-1.979-1.979c0-1.093,0.886-1.979,1.979-1.979C870.668,276.115,871.554,277.001,871.554,278.094"/>
	<path clip-path="url(#SVGID_4_)" fill="#E3E1F0" d="M880.553,248.096c0,1.093-0.886,1.979-1.979,1.979s-1.979-0.886-1.979-1.979
		c0-1.093,0.886-1.979,1.979-1.979S880.553,247.002,880.553,248.096"/>
	<path clip-path="url(#SVGID_4_)" fill="#E3E1F0" d="M1044.045,207.598c0,1.093-0.886,1.979-1.979,1.979
		c-1.094,0-1.979-0.886-1.979-1.979c0-1.093,0.886-1.979,1.979-1.979C1043.159,205.619,1044.045,206.504,1044.045,207.598"/>
	<path clip-path="url(#SVGID_4_)" fill="#E3E1F0" d="M886.553,36.606c0,1.093-0.886,1.979-1.979,1.979
		c-1.094,0-1.979-0.886-1.979-1.979c0-1.093,0.886-1.979,1.979-1.979C885.667,34.627,886.553,35.513,886.553,36.606"/>
	<path clip-path="url(#SVGID_4_)" fill="#E3E1F0" d="M676.563,86.104c0,1.093-0.886,1.979-1.979,1.979
		c-1.093,0-1.979-0.886-1.979-1.979c0-1.093,0.886-1.979,1.979-1.979C675.678,84.125,676.563,85.011,676.563,86.104"/>
	<path clip-path="url(#SVGID_4_)" fill="#E3E1F0" d="M562.569,62.105c0,1.093-0.887,1.979-1.979,1.979s-1.979-0.886-1.979-1.979
		c0-1.093,0.886-1.979,1.979-1.979S562.569,61.012,562.569,62.105"/>
	<path clip-path="url(#SVGID_4_)" fill="#E3E1F0" d="M336.081,180.599c0,1.093-0.886,1.979-1.979,1.979
		c-1.093,0-1.979-0.886-1.979-1.979c0-1.093,0.886-1.979,1.979-1.979C335.194,178.62,336.081,179.506,336.081,180.599"/>
	<path clip-path="url(#SVGID_4_)" fill="#E3E1F0" d="M223.586,201.598c0,1.093-0.886,1.979-1.979,1.979
		c-1.093,0-1.979-0.886-1.979-1.979c0-1.093,0.886-1.979,1.979-1.979C222.7,199.619,223.586,200.505,223.586,201.598"/>
	<path clip-path="url(#SVGID_4_)" fill="#E3E1F0" d="M192.087,162.6c0,1.093-0.886,1.979-1.979,1.979
		c-1.093,0-1.979-0.886-1.979-1.979c0-1.093,0.886-1.979,1.979-1.979C191.202,160.621,192.087,161.507,192.087,162.6"/>
	<path clip-path="url(#SVGID_4_)" fill="#E3E1F0" d="M237.085,146.101c0,1.093-0.886,1.979-1.979,1.979
		c-1.093,0-1.979-0.886-1.979-1.979s0.886-1.979,1.979-1.979C236.199,144.122,237.085,145.008,237.085,146.101"/>
	<path clip-path="url(#SVGID_4_)" fill="#E3E1F0" d="M52.595,140.101c0,1.093-0.886,1.979-1.979,1.979
		c-1.093,0-1.979-0.886-1.979-1.979c0-1.093,0.886-1.979,1.979-1.979C51.708,138.122,52.595,139.008,52.595,140.101"/>
	<path clip-path="url(#SVGID_4_)" fill="#E3E1F0" d="M28.596,240.596c0,1.093-0.886,1.979-1.979,1.979
		c-1.093,0-1.979-0.886-1.979-1.979c0-1.093,0.886-1.979,1.979-1.979C27.71,238.617,28.596,239.503,28.596,240.596"/>
	<path clip-path="url(#SVGID_4_)" fill="#E3E1F0" d="M615.333,48c0,0.92-0.746,1.667-1.667,1.667c-0.92,0-1.666-0.747-1.666-1.667
		s0.746-1.667,1.666-1.667C614.587,46.333,615.333,47.08,615.333,48"/>
	<path clip-path="url(#SVGID_4_)" fill="#E3E1F0" d="M608.667,70.667c0,0.92-0.746,1.667-1.667,1.667
		c-0.92,0-1.666-0.747-1.666-1.667c0-0.92,0.746-1.667,1.666-1.667C607.921,69,608.667,69.747,608.667,70.667"/>
	<path clip-path="url(#SVGID_4_)" fill="#E3E1F0" d="M55.333,44c0,0.92-0.746,1.667-1.667,1.667C52.747,45.667,52,44.92,52,44
		s0.746-1.667,1.666-1.667C54.587,42.333,55.333,43.08,55.333,44"/>
	<path clip-path="url(#SVGID_4_)" fill="#E3E1F0" d="M283.333,347.333c0,0.92-0.746,1.667-1.667,1.667
		c-0.92,0-1.666-0.747-1.666-1.667c0-0.92,0.746-1.667,1.666-1.667C282.587,345.667,283.333,346.413,283.333,347.333"/>
	<path clip-path="url(#SVGID_4_)" fill="#E3E1F0" d="M447.333,320c0,0.92-0.746,1.667-1.667,1.667c-0.92,0-1.666-0.747-1.666-1.667
		s0.746-1.667,1.666-1.667C446.587,318.333,447.333,319.08,447.333,320"/>
	<path clip-path="url(#SVGID_4_)" fill="#E3E1F0" d="M610,277.333c0,0.92-0.746,1.667-1.667,1.667c-0.92,0-1.666-0.747-1.666-1.667
		c0-0.92,0.746-1.667,1.666-1.667C609.254,275.667,610,276.413,610,277.333"/>
	<g opacity="0.58" clip-path="url(#SVGID_4_)">
		<g>
			<defs>
				<rect id="SVGID_7_" x="602" y="293" width="3.333" height="3.333"/>
			</defs>
			<clipPath id="SVGID_8_">
				<use xlink:href="#SVGID_7_"  overflow="visible"/>
			</clipPath>
			<path clip-path="url(#SVGID_8_)" fill="#E3E1F0" d="M605.333,294.667c0,0.92-0.746,1.667-1.667,1.667
				c-0.92,0-1.666-0.747-1.666-1.667c0-0.92,0.746-1.667,1.666-1.667C604.587,293,605.333,293.747,605.333,294.667"/>
		</g>
	</g>
	<path clip-path="url(#SVGID_4_)" fill="#E3E1F0" d="M948.667,658c0,0.92-0.746,1.667-1.667,1.667c-0.92,0-1.666-0.747-1.666-1.667
		s0.746-1.667,1.666-1.667C947.921,656.333,948.667,657.08,948.667,658"/>
	<path clip-path="url(#SVGID_4_)" fill="#E3E1F0" d="M964.667,644c0,0.92-0.746,1.667-1.667,1.667c-0.92,0-1.666-0.747-1.666-1.667
		s0.746-1.667,1.666-1.667C963.921,642.333,964.667,643.08,964.667,644"/>
	<g opacity="0.46" clip-path="url(#SVGID_4_)">
		<g>
			<defs>
				<rect id="SVGID_9_" x="924" y="624.333" width="3.333" height="3.334"/>
			</defs>
			<clipPath id="SVGID_10_">
				<use xlink:href="#SVGID_9_"  overflow="visible"/>
			</clipPath>
			<path clip-path="url(#SVGID_10_)" fill="#E3E1F0" d="M927.333,626c0,0.92-0.746,1.667-1.667,1.667
				c-0.92,0-1.666-0.747-1.666-1.667s0.746-1.667,1.666-1.667C926.587,624.333,927.333,625.08,927.333,626"/>
		</g>
	</g>
	<path clip-path="url(#SVGID_4_)" fill="#E3E1F0" d="M689.333,644c0,0.92-0.746,1.667-1.667,1.667c-0.92,0-1.666-0.747-1.666-1.667
		s0.746-1.667,1.666-1.667C688.587,642.333,689.333,643.08,689.333,644"/>
	<path clip-path="url(#SVGID_4_)" fill="#E3E1F0" d="M924.667,436.667c0,0.92-0.746,1.667-1.667,1.667
		c-0.92,0-1.666-0.747-1.666-1.667c0-0.921,0.746-1.667,1.666-1.667C923.921,435,924.667,435.746,924.667,436.667"/>
	<path clip-path="url(#SVGID_4_)" fill="#E3E1F0" d="M873.104,341.75c0,1.208-0.979,2.188-2.188,2.188
		c-1.208,0-2.187-0.98-2.187-2.188s0.979-2.188,2.187-2.188C872.125,339.562,873.104,340.542,873.104,341.75"/>
	<path clip-path="url(#SVGID_4_)" fill="#E3E1F0" d="M734.083,319.667c0,1.151-0.933,2.083-2.083,2.083s-2.084-0.932-2.084-2.083
		c0-1.151,0.934-2.083,2.084-2.083S734.083,318.516,734.083,319.667"/>
	<path clip-path="url(#SVGID_4_)" fill="#E3E1F0" d="M672,95.333c0,0.92-0.746,1.667-1.667,1.667c-0.92,0-1.666-0.747-1.666-1.667
		c0-0.92,0.746-1.667,1.666-1.667C671.254,93.667,672,94.413,672,95.333"/>
	<path clip-path="url(#SVGID_4_)" fill="#E3E1F0" d="M418,20.667c0,0.92-0.746,1.667-1.667,1.667c-0.92,0-1.666-0.747-1.666-1.667
		c0-0.92,0.746-1.667,1.666-1.667C417.254,19,418,19.747,418,20.667"/>
	<path clip-path="url(#SVGID_4_)" fill="#E3E1F0" d="M1058,139c0,0.92-0.746,1.667-1.667,1.667c-0.92,0-1.666-0.747-1.666-1.667
		s0.746-1.667,1.666-1.667C1057.254,137.333,1058,138.08,1058,139"/>
	<path clip-path="url(#SVGID_4_)" fill="#E3E1F0" d="M1057,45c0,0.92-0.746,1.667-1.667,1.667c-0.92,0-1.666-0.747-1.666-1.667
		s0.746-1.667,1.666-1.667C1056.254,43.333,1057,44.08,1057,45"/>
	<path clip-path="url(#SVGID_4_)" fill="#E3E1F0" d="M1013,47c0,0.92-0.746,1.667-1.667,1.667c-0.92,0-1.666-0.747-1.666-1.667
		s0.746-1.667,1.666-1.667C1012.254,45.333,1013,46.08,1013,47"/>
</g>
<g>
	<defs>
		<rect id="SVGID_11_" width="1100" height="700"/>
	</defs>
	<clipPath id="SVGID_12_">
		<use xlink:href="#SVGID_11_"  overflow="visible"/>
	</clipPath>
	<path clip-path="url(#SVGID_12_)" fill="#E3E1F0" d="M521,677c0,0.92-0.746,1.667-1.667,1.667c-0.92,0-1.666-0.747-1.666-1.667
		s0.746-1.667,1.666-1.667C520.254,675.333,521,676.08,521,677"/>
	<path clip-path="url(#SVGID_12_)" fill="#E3E1F0" d="M1092.667,221.667c0,0.92-0.746,1.667-1.667,1.667
		c-0.92,0-1.666-0.747-1.666-1.667c0-0.92,0.746-1.667,1.666-1.667C1091.921,220,1092.667,220.747,1092.667,221.667"/>
	<path clip-path="url(#SVGID_12_)" fill="#E3E1F0" d="M836.667,88.333c0,0.92-0.746,1.667-1.667,1.667
		c-0.92,0-1.666-0.747-1.666-1.667s0.746-1.667,1.666-1.667C835.921,86.667,836.667,87.414,836.667,88.333"/>
	<g opacity="0.45" clip-path="url(#SVGID_12_)">
		<g>
			<defs>
				<rect id="SVGID_13_" x="816.667" y="62.667" width="3.333" height="3.333"/>
			</defs>
			<clipPath id="SVGID_14_">
				<use xlink:href="#SVGID_13_"  overflow="visible"/>
			</clipPath>
			<path clip-path="url(#SVGID_14_)" fill="#E3E1F0" d="M820,64.333c0,0.92-0.746,1.667-1.667,1.667
				c-0.92,0-1.666-0.747-1.666-1.667s0.746-1.667,1.666-1.667C819.254,62.667,820,63.414,820,64.333"/>
		</g>
	</g>
	<g opacity="0.45" clip-path="url(#SVGID_12_)">
		<g>
			<defs>
				<rect id="SVGID_15_" x="831.333" y="56.667" width="3.334" height="3.333"/>
			</defs>
			<clipPath id="SVGID_16_">
				<use xlink:href="#SVGID_15_"  overflow="visible"/>
			</clipPath>
			<path clip-path="url(#SVGID_16_)" fill="#E3E1F0" d="M834.667,58.333c0,0.92-0.746,1.667-1.667,1.667
				c-0.92,0-1.666-0.747-1.666-1.667s0.746-1.667,1.666-1.667C833.921,56.667,834.667,57.414,834.667,58.333"/>
		</g>
	</g>
	<path clip-path="url(#SVGID_12_)" fill="#E3E1F0" d="M632,484.667c0,0.92-0.746,1.667-1.667,1.667c-0.92,0-1.666-0.747-1.666-1.667
		s0.746-1.667,1.666-1.667C631.254,483,632,483.747,632,484.667"/>
	<path clip-path="url(#SVGID_12_)" fill="#E3E1F0" d="M328,552c0,0.92-0.746,1.667-1.667,1.667c-0.92,0-1.666-0.747-1.666-1.667
		s0.746-1.667,1.666-1.667C327.254,550.333,328,551.08,328,552"/>
	<g opacity="0.73" clip-path="url(#SVGID_12_)">
		<g>
			<defs>
				<rect id="SVGID_17_" x="145.333" y="609" width="3.334" height="3.333"/>
			</defs>
			<clipPath id="SVGID_18_">
				<use xlink:href="#SVGID_17_"  overflow="visible"/>
			</clipPath>
			<path clip-path="url(#SVGID_18_)" fill="#E3E1F0" d="M148.667,610.667c0,0.92-0.746,1.667-1.667,1.667
				c-0.92,0-1.666-0.747-1.666-1.667S146.08,609,147,609C147.921,609,148.667,609.747,148.667,610.667"/>
		</g>
	</g>
	<g opacity="0.9" clip-path="url(#SVGID_12_)">
		<g>
			<defs>
				<rect id="SVGID_19_" x="91.333" y="396.333" width="3.333" height="3.334"/>
			</defs>
			<clipPath id="SVGID_20_">
				<use xlink:href="#SVGID_19_"  overflow="visible"/>
			</clipPath>
			<path clip-path="url(#SVGID_20_)" fill="#E3E1F0" d="M94.667,398c0,0.92-0.746,1.667-1.667,1.667
				c-0.92,0-1.666-0.747-1.666-1.667s0.746-1.667,1.666-1.667C93.921,396.333,94.667,397.08,94.667,398"/>
		</g>
	</g>
	<path clip-path="url(#SVGID_12_)" fill="#E3E1F0" d="M81.333,396.009c0,0.92-0.746,1.667-1.667,1.667
		c-0.92,0-1.666-0.747-1.666-1.667s0.746-1.667,1.666-1.667C80.587,394.342,81.333,395.089,81.333,396.009"/>
	<path clip-path="url(#SVGID_12_)" fill="#E3E1F0" d="M101.104,300.083c0,1.208-0.979,2.188-2.188,2.188
		c-1.208,0-2.187-0.98-2.187-2.188s0.979-2.188,2.187-2.188C100.125,297.896,101.104,298.875,101.104,300.083"/>
</g>
<rect fill="none" width="1100" height="700"/>
</svg>
